<svg width="900" height="720" viewBox="0 0 900 720" fill="none" xmlns="http://www.w3.org/2000/svg">
  <rect width="900" height="720" fill="#F8FAFC"/>
  <rect width="900" height="260" fill="#E0F2FE"/>
  <circle cx="760" cy="118" r="64" fill="#FDBA74"/>
  <rect y="520" width="900" height="200" fill="#CBD5E1"/>
  <path d="M0 457C121 425 262 427 384 460C523 497 659 560 900 512V601H0V457Z" fill="#94A3B8"/>
  <rect x="135" y="265" width="246" height="168" rx="24" fill="#FFFFFF"/>
  <circle cx="215" cy="307" r="34" fill="#FDBA74"/>
  <rect x="183" y="344" width="68" height="94" rx="28" fill="#1E293B"/>
  <rect x="258" y="342" width="84" height="18" rx="9" fill="#F97316"/>
  <rect x="316" y="330" width="26" height="64" rx="13" fill="#F8FAFC"/>
  <rect x="431" y="339" width="286" height="124" rx="32" fill="#1E293B"/>
  <path d="M485 339C511 302 555 280 604 280C653 280 697 302 723 339H485Z" fill="#1E293B"/>
  <rect x="501" y="355" width="205" height="50" rx="16" fill="#F8FAFC"/>
  <circle cx="506" cy="484" r="38" fill="#0F172A"/>
  <circle cx="658" cy="484" r="38" fill="#0F172A"/>
  <circle cx="506" cy="484" r="17" fill="#94A3B8"/>
  <circle cx="658" cy="484" r="17" fill="#94A3B8"/>
  <rect x="330" y="367" width="119" height="16" rx="8" fill="#F97316"/>
  <rect x="315" y="390" width="54" height="12" rx="6" fill="#FDBA74"/>
</svg>
